<svg width="50" height="50" viewBox="0 0 50 50" fill="none" xmlns="http://www.w3.org/2000/svg">
<g clip-path="url(#clip0_550_86)">
<path d="M7.11636 1.23324C5.48939 -0.393728 2.84719 -0.393728 1.22023 1.23324C-0.406742 2.86021 -0.406742 5.50241 1.22023 7.12938L19.1039 25L1.23324 42.8836C-0.393728 44.5106 -0.393728 47.1528 1.23324 48.7798C2.86021 50.4067 5.50241 50.4067 7.12938 48.7798L25 30.8961L42.8836 48.7668C44.5106 50.3937 47.1528 50.3937 48.7798 48.7668C50.4067 47.1398 50.4067 44.4976 48.7798 42.8706L30.8961 25L48.7668 7.11636C50.3937 5.48939 50.3937 2.84719 48.7668 1.22023C47.1398 -0.406742 44.4976 -0.406742 42.8706 1.22023L25 19.1039L7.11636 1.23324Z" fill="white"/>
</g>
<defs>
<clipPath id="clip0_550_86">
<rect width="50" height="50" fill="white"/>
</clipPath>
</defs>
</svg>
