<svg width="50" height="43" viewBox="0 0 50 43" fill="none" xmlns="http://www.w3.org/2000/svg">
<path d="M0 3.58333C0 1.6013 1.59598 0 3.57143 0H46.4286C48.404 0 50 1.6013 50 3.58333C50 5.56536 48.404 7.16667 46.4286 7.16667H3.57143C1.59598 7.16667 0 5.56536 0 3.58333ZM0 21.5C0 19.518 1.59598 17.9167 3.57143 17.9167H46.4286C48.404 17.9167 50 19.518 50 21.5C50 23.482 48.404 25.0833 46.4286 25.0833H3.57143C1.59598 25.0833 0 23.482 0 21.5ZM50 39.4167C50 41.3987 48.404 43 46.4286 43H3.57143C1.59598 43 0 41.3987 0 39.4167C0 37.4346 1.59598 35.8333 3.57143 35.8333H46.4286C48.404 35.8333 50 37.4346 50 39.4167Z" fill="white"/>
</svg>
