<svg width="50" height="50" viewBox="0 0 50 50" fill="none" xmlns="http://www.w3.org/2000/svg">
<path d="M26.0746 0.90917C27.1499 -0.243713 28.9516 -0.312105 30.1043 0.772387C31.257 1.85688 31.3151 3.68391 30.2399 4.83679L26.0746 9.33108C28.1573 9.6535 30.1527 10.484 31.7994 11.8323L39.0256 17.7237C40.2462 18.7202 40.4399 20.5375 39.4519 21.7685C38.4638 22.9996 36.6718 23.195 35.4416 22.1984L28.2154 16.307C25.6775 14.2455 21.2507 14.5288 19.0615 16.8834L11.1185 25.5008C9.0359 27.7479 9.26838 31.3629 11.661 33.7273L20.4952 42.4618C22.9071 44.8067 26.8496 44.8067 29.2228 42.4227L34.1727 37.4399C35.2866 36.3164 37.0883 36.3164 38.2023 37.4497C39.3162 38.583 39.3066 40.4003 38.1926 41.5239L33.2427 46.5067C28.6803 51.1084 21.2313 51.1671 16.5915 46.663L7.67978 37.8503C3.13676 33.3462 2.69117 26.1749 6.95328 21.5634L26.0746 0.90917ZM43.1521 26.6927C44.7214 26.6927 46 27.9824 46 29.5749C46 31.1675 44.7214 32.4571 43.1521 32.4571H22.1419C20.5727 32.4571 19.294 31.1675 19.294 29.5749C19.294 27.9824 20.5727 26.6927 22.1419 26.6927H43.1521Z" fill="white"/>
</svg>
