<svg width="43" height="50" viewBox="0 0 43 50" fill="none" xmlns="http://www.w3.org/2000/svg">
<path d="M24.9801 3.125C25.9071 3.125 26.8243 3.18359 27.7123 3.29102C21.8478 7.03125 17.9544 13.6035 17.9544 21.0938C17.9544 32.5391 27.361 41.875 38.5142 42.1777C34.7867 45.1172 30.0932 46.875 24.9801 46.875C12.9096 46.875 3.12251 37.0801 3.12251 25C3.12251 12.9199 12.9096 3.125 24.9801 3.125ZM24.9801 0C11.1825 0 0 11.1914 0 25C0 38.8086 11.1825 50 24.9801 50C31.6935 50 37.7921 47.3438 42.2807 43.0273C42.9931 42.3438 43.198 41.2793 42.7979 40.3809C42.3978 39.4824 41.4611 38.9258 40.4755 39.0039C30.1908 39.8242 21.0769 31.4551 21.0769 21.0938C21.0769 14.0527 25.1264 7.94922 31.0397 5C31.9277 4.56055 32.4351 3.60352 32.318 2.61719C32.2009 1.63086 31.4788 0.830078 30.5128 0.615234C28.7271 0.214844 26.8731 0 24.9801 0Z" fill="white"/>
</svg>
