<svg width="50" height="50" viewBox="0 0 50 50" fill="none" xmlns="http://www.w3.org/2000/svg">
<path d="M25 50C24.1406 50 23.4375 49.2969 23.4375 48.4375V41.4062C23.4375 40.5469 24.1406 39.8438 25 39.8438C25.8594 39.8438 26.5625 40.5469 26.5625 41.4062V48.4375C26.5625 49.2969 25.8594 50 25 50ZM25 10.1562C24.1406 10.1562 23.4375 9.45313 23.4375 8.59375V1.5625C23.4375 0.703125 24.1406 0 25 0C25.8594 0 26.5625 0.703125 26.5625 1.5625V8.59375C26.5625 9.45313 25.8594 10.1562 25 10.1562ZM42.6758 42.6758C42.0703 43.2812 41.0742 43.2812 40.4687 42.6758L35.498 37.7051C34.8926 37.0996 34.8926 36.1035 35.498 35.498C36.1035 34.8926 37.0996 34.8926 37.7051 35.498L42.6758 40.4687C43.2812 41.0742 43.2812 42.0703 42.6758 42.6758ZM14.502 14.502C13.8965 15.1074 12.9004 15.1074 12.2949 14.502L7.32422 9.53125C6.71875 8.92578 6.71875 7.92969 7.32422 7.32422C7.92969 6.71875 8.92578 6.71875 9.53125 7.32422L14.502 12.2949C15.1074 12.9004 15.1074 13.8965 14.502 14.502ZM48.4375 26.5625H41.4062C40.5469 26.5625 39.8438 25.8594 39.8438 25C39.8438 24.1406 40.5469 23.4375 41.4062 23.4375H48.4375C49.2969 23.4375 50 24.1406 50 25C50 25.8594 49.2969 26.5625 48.4375 26.5625ZM8.59375 26.5625H1.5625C0.703125 26.5625 0 25.8594 0 25C0 24.1406 0.703125 23.4375 1.5625 23.4375H8.59375C9.45313 23.4375 10.1562 24.1406 10.1562 25C10.1562 25.8594 9.45313 26.5625 8.59375 26.5625ZM42.6758 7.32422C43.2812 7.92969 43.2812 8.92578 42.6758 9.53125L37.7051 14.502C37.0996 15.1074 36.1035 15.1074 35.498 14.502C34.8926 13.8965 34.8926 12.9004 35.498 12.2949L40.4687 7.32422C41.0742 6.71875 42.0703 6.71875 42.6758 7.32422ZM14.502 35.498C15.1074 36.1035 15.1074 37.0996 14.502 37.7051L9.53125 42.6758C8.92578 43.2812 7.92969 43.2812 7.32422 42.6758C6.71875 42.0703 6.71875 41.0742 7.32422 40.4687L12.2949 35.498C12.9004 34.8926 13.8965 34.8926 14.502 35.498ZM32.8125 25C32.8125 22.928 31.9894 20.9409 30.5243 19.4757C29.0591 18.0106 27.072 17.1875 25 17.1875C22.928 17.1875 20.9409 18.0106 19.4757 19.4757C18.0106 20.9409 17.1875 22.928 17.1875 25C17.1875 27.072 18.0106 29.0591 19.4757 30.5243C20.9409 31.9894 22.928 32.8125 25 32.8125C27.072 32.8125 29.0591 31.9894 30.5243 30.5243C31.9894 29.0591 32.8125 27.072 32.8125 25ZM14.0625 25C14.0625 22.0992 15.2148 19.3172 17.266 17.266C19.3172 15.2148 22.0992 14.0625 25 14.0625C27.9008 14.0625 30.6828 15.2148 32.734 17.266C34.7852 19.3172 35.9375 22.0992 35.9375 25C35.9375 27.9008 34.7852 30.6828 32.734 32.734C30.6828 34.7852 27.9008 35.9375 25 35.9375C22.0992 35.9375 19.3172 34.7852 17.266 32.734C15.2148 30.6828 14.0625 27.9008 14.0625 25Z" fill="white"/>
</svg>
